#tb 0: 1/44100
#media_type 0: audio
#codec_id 0: pcm_s16le
#sample_rate 0: 44100
#channel_layout_name 0: stereo
0,          0,          0,     4096,    16384, 0xfa52e42f
0,       4096,       4096,     4096,    16384, 0xb4f8f1bf
0,       8192,       8192,     4096,    16384, 0xd836e07f
0,      12288,      12288,     4096,    16384, 0x4f6aed7b
0,      16384,      16384,     4096,    16384, 0xc7cef78d
0,      20480,      20480,     4096,    16384, 0xf47dfecb
0,      24576,      24576,     4096,    16384, 0x76b4edd9
0,      28672,      28672,     4096,    16384, 0x2d76e8ed
0,      32768,      32768,     4096,    16384, 0xf45ee69f
0,      36864,      36864,     4096,    16384, 0xb4f8f1bf
0,      40960,      40960,     4096,    16384, 0x7865e9fd
0,      45056,      45056,     4096,    16384, 0x71bcca63
0,      49152,      49152,     4096,    16384, 0xfebf0aca
0,      53248,      53248,     4096,    16384, 0xe1c2ff4b
0,      57344,      57344,     4096,    16384, 0x679bb391
0,      61440,      61440,     4096,    16384, 0x2631a02b
0,      65536,      65536,     4096,    16384, 0xb695e24d
0,      69632,      69632,     4096,    16384, 0x364629f6
0,      73728,      73728,     4096,    16384, 0x1b4b060e
0,      77824,      77824,     4096,    16384, 0xaf0addd9
0,      81920,      81920,     4096,    16384, 0xc53dd3ef
0,      86016,      86016,     4096,    16384, 0x3908099c
0,      90112,      90112,     4096,    16384, 0xcbf28055
0,      94208,      94208,     4096,    16384, 0x1e54c44b
0,      98304,      98304,     4096,    16384, 0x1efd2004
0,     102400,     102400,     4096,    16384, 0x45d592e9
0,     106496,     106496,     4096,    16384, 0xafdec90b
0,     110592,     110592,     4096,    16384, 0x52042098
0,     114688,     114688,     4096,    16384, 0x11e939ac
0,     118784,     118784,     4096,    16384, 0xb47111b6
0,     122880,     122880,     4096,    16384, 0x2ce5799a
0,     126976,     126976,     4096,    16384, 0x1d8e7888
0,     131072,     131072,     4096,    16384, 0x0a9fb764
0,     135168,     135168,     4096,    16384, 0x8751ec9d
0,     139264,     139264,     4096,    16384, 0x56d91660
0,     143360,     143360,     4096,    16384, 0x666ade32
0,     147456,     147456,     4096,    16384, 0x53b2088d
0,     151552,     151552,     4096,    16384, 0xa528e3f5
0,     155648,     155648,     4096,    16384, 0x12c4c4ac
0,     159744,     159744,     4096,    16384, 0x4bd1c66d
0,     163840,     163840,     4096,    16384, 0xb61de764
0,     167936,     167936,     4096,    16384, 0xd81bdf4c
0,     172032,     172032,     4096,    16384, 0x353eed26
0,     176128,     176128,     4096,    16384, 0xa76bf952
0,     180224,     180224,     4096,    16384, 0x6f37a9ed
0,     184320,     184320,     4096,    16384, 0x80b7a133
0,     188416,     188416,     4096,    16384, 0x2ce4f7a2
0,     192512,     192512,     4096,    16384, 0x74f5f304
0,     196608,     196608,     4096,    16384, 0x890c2519
0,     200704,     200704,     4096,    16384, 0xc7cb9a72
0,     204800,     204800,     4096,    16384, 0x7938c72e
0,     208896,     208896,     4096,    16384, 0x8e7707a2
0,     212992,     212992,     4096,    16384, 0x6f37a9ed
0,     217088,     217088,     4096,    16384, 0x80b7a133
0,     221184,     221184,     4096,    16384, 0x2ce4f7a2
0,     225280,     225280,     4096,    16384, 0x74f5f304
0,     229376,     229376,     4096,    16384, 0x890c2519
0,     233472,     233472,     4096,    16384, 0xc7cb9a72
0,     237568,     237568,     4096,    16384, 0x7938c72e
0,     241664,     241664,     4096,    16384, 0x8e7707a2
0,     245760,     245760,     4096,    16384, 0x6f37a9ed
0,     249856,     249856,     4096,    16384, 0x80b7a133
0,     253952,     253952,     4096,    16384, 0x2ce4f7a2
0,     258048,     258048,     4096,    16384, 0x74f5f304
0,     262144,     262144,     2456,     9824, 0x54fc5b6e
